<svg xmlns="http://www.w3.org/2000/svg" width="120" height="40" viewBox="0 0 120 40" fill="none">
  <path d="M15 8H25V32H15V8Z" fill="#0071C2"/>
  <path d="M30 8H40V32H30V8Z" fill="#0071C2"/>
  <path d="M45 8H55V32H45V8Z" fill="#0071C2"/>
  <path d="M60 8H70V20H60V8Z" fill="#0071C2"/>
  <path d="M75 8H85V20H75V8Z" fill="#0071C2"/>
  <path d="M60 22H70V32H60V22Z" fill="#0071C2"/>
  <path d="M2 16C2 11.5817 5.58172 8 10 8V32C5.58172 32 2 28.4183 2 24V16Z" fill="#0071C2"/>
  <path d="M90 16C90 11.5817 93.5817 8 98 8V32C93.5817 32 90 28.4183 90 24V16Z" fill="#0071C2"/>
  <path d="M103 8H113C115.761 8 118 10.2386 118 13V27C118 29.7614 115.761 32 113 32H103V8Z" fill="#0071C2"/>
</svg>
